# xmcd
#
# Track frame offsets:
#	180
#	17065
#	38571
#	57122
#	77872
#	95934
#	114035
#	135005
#	154111
#	170165
#	186081
#	208649
#
# Disc length: 3036 seconds
#
# Revision: 0
# Processed by: cddbd v1.5.2PL0 Copyright (c) Steve Scherf et al.
# Submitted via: EZCDAudioConverter 2.2.2.1
#
DISCID=930bda0c
DTITLE=李翊君 - 淚的小雨
DYEAR=1997
DGENRE=國語流行曲
TTITLE0=人兒不能留
TTITLE1=幾時再回頭
TTITLE2=我的心裡只有你沒有他
TTITLE3=愛的淚珠
TTITLE4=難忘的初戀情人
TTITLE5=恨你不回頭
TTITLE6=淚的小雨
TTITLE7=雨中徘徊
TTITLE8=愛我在今宵
TTITLE9=美酒加咖啡
TTITLE10=喝采
TTITLE11=負心的人
EXTD=
EXTT0=
EXTT1=
EXTT2=
EXTT3=
EXTT4=
EXTT5=
EXTT6=
EXTT7=
EXTT8=
EXTT9=
EXTT10=
EXTT11=
PLAYORDER=
